<?xml version="1.0" encoding="iso-8859-1"?>
<!-- Generator: Adobe Illustrator 16.0.0, SVG Export Plug-In . SVG Version: 6.00 Build 0)  -->
<!DOCTYPE svg PUBLIC "-//W3C//DTD SVG 1.1//EN" "http://www.w3.org/Graphics/SVG/1.1/DTD/svg11.dtd">
<svg version="1.1" id="Capa_1" xmlns="http://www.w3.org/2000/svg" xmlns:xlink="http://www.w3.org/1999/xlink" x="0px" y="0px"
	 width="478.125px" height="478.125px" viewBox="0 0 478.125 478.125" style="enable-background:new 0 0 478.125 478.125;"
	 xml:space="preserve">
<g>
	<g>
		<g>
			<path d="M331.475,204.025H274.1V146.65c0-10.557-8.645-19.125-19.125-19.125h-31.9c-10.557,0-19.125,8.645-19.125,19.125v57.375
				h-57.375c-10.557,0-19.125,8.645-19.125,19.125v31.9c0,10.48,8.568,19.125,19.125,19.125h57.375v57.375
				c0,10.558,8.568,19.125,19.125,19.125h31.9c10.557,0,19.125-8.645,19.125-19.125v-57.375h57.375
				c10.48,0,19.125-8.645,19.125-19.125v-31.9C350.6,212.67,341.955,204.025,331.475,204.025z"/>
			<path d="M239.062,0C106.947,0,0,106.947,0,239.062s106.947,239.062,239.062,239.062c132.115,0,239.062-106.947,239.062-239.062
				S371.178,0,239.062,0z M239.292,409.734c-94.171,0-170.595-76.348-170.595-170.596c0-94.248,76.347-170.595,170.595-170.595
				s170.595,76.347,170.595,170.595C409.887,333.387,333.464,409.734,239.292,409.734z"/>
		</g>
	</g>
</g>
<g>
</g>
<g>
</g>
<g>
</g>
<g>
</g>
<g>
</g>
<g>
</g>
<g>
</g>
<g>
</g>
<g>
</g>
<g>
</g>
<g>
</g>
<g>
</g>
<g>
</g>
<g>
</g>
<g>
</g>
</svg>
