<?xml version="1.0" encoding="iso-8859-1"?>
<!-- Generator: Adobe Illustrator 16.0.0, SVG Export Plug-In . SVG Version: 6.00 Build 0)  -->
<!DOCTYPE svg PUBLIC "-//W3C//DTD SVG 1.1//EN" "http://www.w3.org/Graphics/SVG/1.1/DTD/svg11.dtd">
<svg version="1.1" id="Capa_1" xmlns="http://www.w3.org/2000/svg" xmlns:xlink="http://www.w3.org/1999/xlink" x="0px" y="0px"
	 width="533.333px" height="533.334px" viewBox="0 0 533.333 533.334" style="enable-background:new 0 0 533.333 533.334;"
	 xml:space="preserve">
<g>
	<path d="M233.333,66.667v-8.333c0-13.75-11.25-25-25-25H125c-13.75,0-25,11.25-25,25v8.333H0v66.667h100v8.333
		c0,13.75,11.25,25,25,25h83.333c13.75,0,25-11.25,25-25v-8.333h300V66.667H233.333z M133.333,133.333V66.667H200v66.667H133.333z
		 M433.333,225c0-13.75-11.25-25-25-25H325c-13.75,0-25,11.25-25,25v8.333H0V300h300v8.333c0,13.751,11.25,25,25,25h83.334
		c13.75,0,25-11.249,25-25V300h100v-66.667h-100V225z M333.333,300v-66.667H400V300H333.333z M233.333,391.667
		c0-13.751-11.25-25-25-25H125c-13.75,0-25,11.249-25,25V400H0v66.667h100V475c0,13.75,11.25,25,25,25h83.333
		c13.75,0,25-11.25,25-25v-8.333h300V400h-300V391.667z M133.333,466.667V400H200v66.667H133.333z"/>
</g>
<g>
</g>
<g>
</g>
<g>
</g>
<g>
</g>
<g>
</g>
<g>
</g>
<g>
</g>
<g>
</g>
<g>
</g>
<g>
</g>
<g>
</g>
<g>
</g>
<g>
</g>
<g>
</g>
<g>
</g>
</svg>
